<?xml version="1.0" encoding="UTF-8" standalone="no"?>
<!-- Created with Inkscape (http://www.inkscape.org/) -->

<svg
   xmlns:osb="http://www.openswatchbook.org/uri/2009/osb"
   xmlns:dc="http://purl.org/dc/elements/1.1/"
   xmlns:cc="http://creativecommons.org/ns#"
   xmlns:rdf="http://www.w3.org/1999/02/22-rdf-syntax-ns#"
   xmlns:svg="http://www.w3.org/2000/svg"
   xmlns="http://www.w3.org/2000/svg"
   xmlns:sodipodi="http://sodipodi.sourceforge.net/DTD/sodipodi-0.dtd"
   xmlns:inkscape="http://www.inkscape.org/namespaces/inkscape"
   width="600.14282"
   height="527.14288"
   id="svg2"
   sodipodi:version="0.32"
   inkscape:version="0.92.4 5da689c313, 2019-01-14"
   version="1.0"
   sodipodi:docname="map.svg"
   inkscape:output_extension="org.inkscape.output.svg.inkscape">
  <defs
     id="defs4">
    <linearGradient
       id="linearGradient6676"
       osb:paint="solid">
      <stop
         style="stop-color:#848484;stop-opacity:1;"
         offset="0"
         id="stop6674" />
    </linearGradient>
    <inkscape:perspective
       sodipodi:type="inkscape:persp3d"
       inkscape:vp_x="0 : 270 : 1"
       inkscape:vp_y="0 : 1000 : 0"
       inkscape:vp_z="455 : 270 : 1"
       inkscape:persp3d-origin="227.5 : 180 : 1"
       id="perspective29" />
  </defs>
  <sodipodi:namedview
     id="base"
     pagecolor="#ffffff"
     bordercolor="#666666"
     borderopacity="1.0"
     inkscape:pageopacity="0.0"
     inkscape:pageshadow="2"
     inkscape:zoom="0.98994951"
     inkscape:cx="220.1776"
     inkscape:cy="161.11322"
     inkscape:document-units="px"
     inkscape:current-layer="layer1"
     inkscape:window-width="1920"
     inkscape:window-height="981"
     inkscape:window-x="0"
     inkscape:window-y="28"
     showguides="true"
     inkscape:guide-bbox="true"
     showgrid="false"
     inkscape:window-maximized="1"
     inkscape:showpageshadow="false"
     borderlayer="true" />
  <metadata
     id="metadata7">
    <rdf:RDF>
      <cc:Work
         rdf:about="">
        <dc:format>image/svg+xml</dc:format>
        <dc:type
           rdf:resource="http://purl.org/dc/dcmitype/StillImage" />
        <dc:title />
      </cc:Work>
    </rdf:RDF>
  </metadata>
  <g
     inkscape:label="Capa 1"
     inkscape:groupmode="layer"
     id="layer1"
     transform="translate(-96.785721,-272.362)">
    <path
       style="fill:#ececec;fill-opacity:1;fill-rule:evenodd;stroke:#848484;stroke-width:1;stroke-linecap:butt;stroke-linejoin:miter;stroke-miterlimit:4;stroke-dasharray:none;stroke-opacity:1"
       d="m 547.73213,282.10204 -4.8125,0.90625 -4.53125,4.40625 -3.3125,7.1875 -2.5,17.3125 -1.78125,3.40625 -1.90625,2.28125 -3.90625,1.75 -6.3125,3.40625 -6.8125,4.3125 -5.9375,5.28125 c -10e-6,0 -2.52744,3.92734 -2.90625,4.9375 -0.37881,1.01015 -2.15625,5.4375 -2.15625,5.4375 1e-5,0 -0.9962,4.64863 -1.375,5.40625 -0.37882,0.75761 -2.65625,5.5625 -2.65625,5.5625 l -5.1875,5.6875 -2.875,2.28125 -6.46875,5.15625 -19.8125,-0.25 -9.21875,-4.15625 -8.1875,-0.5 -6.46875,-7.1875 -12.25,-7.71875 -14.5,-7.0625 -15.78125,-6.5625 -4.8125,1.625 -7.9375,0.625 -12.25,-0.375 -1.15625,-0.875 2.65625,-7.6875 -5.3125,-3.9375 -4.40625,-3.53125 -4.53125,0.25 0.75,3.78125 5.8125,10 -5.4375,4.53125 -8.96875,1.90625 -16.15625,0.125 -9.21875,3.90625 -1.53125,-1.625 -7.6875,-0.15625 -15.03125,6.0625 -8.96875,-7.0625 -3.40625,-1.5 -1.78125,1.5625 c 0.38452,2.30709 -4.8069,0.57788 -6.8125,1.78125 -1.53114,0.91868 -2.45061,2.45061 -3.5625,3.5625 -1.36743,1.36743 -3.95432,2.89543 -5.34375,3.9375 -1.41352,1.06013 -0.60435,4.08259 -0.375,5 0.50535,2.0214 -0.41631,3.79026 -0.71875,5 -0.33852,1.35408 -2.34993,2.30597 -2.84375,4.28125 -0.36822,1.47289 -2.90701,3.28201 -3.5625,3.9375 -0.85799,0.85798 0.71875,4.62235 0.71875,5.6875 0,1.55195 0.29849,4.1627 0.6875,5.71875 0.33189,1.32756 3.19947,2.30286 3.59375,2.5 0.36142,0.18071 -1.00579,3.36341 -0.71875,3.9375 0.34985,0.6997 4.47664,0.88908 5.34375,1.0625 1.51393,0.30278 4.15217,0.94837 5.375,1.4375 0.14983,0.0599 1.0625,4.94189 1.0625,5.34375 0,2.35604 0.87841,4.20112 1.4375,6.4375 0.49111,1.96444 1.5872,3.17439 2.5,5 0.80485,1.6097 0.97055,4.31968 1.40625,6.0625 0.57663,2.30652 0.97003,4.0338 1.8125,5.71875 0.88008,1.76015 1.31637,2.79671 1.78125,4.65625 0.50125,2.005 1.22901,4.0241 2.5,5.71875 1.32748,1.76998 2.2997,4.37877 3.5625,6.0625 0.9719,1.29587 1.15395,4.46415 1.78125,5.71875 0.84387,1.68773 1.86988,4.05226 2.875,6.0625 0.89099,1.78199 1.02413,4.87066 1.40625,6.78125 0.31225,1.56125 0.002,3.61847 -0.34375,5 0.47188,2.35939 -2.875,3.55095 -2.875,5.71875 0,1.61102 4.28513,1.78125 5.375,1.78125 2.2757,0 3.44,2.095 5,2.875 1.99274,0.99637 2.96995,0.8137 4.28125,2.125 0.90765,0.90765 2.37693,1.65818 3.21875,2.5 1.57107,1.57106 8.4e-4,3.15289 -0.375,4.65625 -0.50863,2.03453 0.80666,4.45707 1.4375,5.71875 0.79123,1.58246 2.15999,3.26497 2.5,4.625 0.49869,1.99476 0.62796,3.63684 1.0625,5.375 0.49838,1.9935 0,4.69321 0,6.78125 0,1.44984 -1.52221,3.79441 -2.125,5 -0.8805,1.76099 -0.79093,4.05062 -1.4375,5.34375 -0.2474,0.4948 -0.29282,1.19002 -0.4375,1.90625 -0.20862,1.03274 -0.46922,2.12689 -0.625,2.75 -0.42316,1.69264 0.0256,3.74135 -0.375,5.34375 -0.40075,1.603 -1.73549,2.37948 -2.125,3.9375 -0.43767,1.75067 0,4.25522 0,6.0625 0,1.02013 3.60817,2.53846 4.28125,2.875 1.46466,0.73234 3.96596,0.34375 5.71875,0.34375 2.00442,0 2.83341,-0.34375 4.625,-0.34375 l 10,2.84375 13.9375,3.9375 8.21875,6.0625 5.34375,11.0625 1.8125,14.3125 7.84375,-3.21875 7.15625,0.34375 6.0625,2.15625 -0.375,22.5 -8.5625,3.90625 -4.625,7.875 0.6875,10.34375 4.96875,19.90625 0.0312,0.0937 -2.5,0.375 -4.625,6.0625 -3.9375,3.21875 -6.4375,-0.375 -5.34375,-0.34375 -6.0625,0.34375 -7.15625,0.71875 h -6.0625 l -5.71875,-3.90625 -5.34375,-2.5 -18.21875,-2.15625 23.90625,49.65625 3.21875,-3.59375 6.78125,5.71875 6.4375,0.375 7.15625,6.78125 3.21875,0.71875 4.28125,-0.71875 2.5,-2.875 1.40625,-0.71875 11.34375,4.53125 10.09375,4.0625 5.375,1.0625 c 1e-5,0 4.62053,0.0134 6.40625,-0.34375 1.78571,-0.35714 38.59375,-8.21875 38.59375,-8.21875 l -0.0312,0.0937 -9.28125,44.1875 12.875,13.5625 1.4375,1.78125 v 2.875 c 1e-5,10e-6 21.41518,5.34375 22.84375,5.34375 1.42857,0 7.15179,-1.41965 8.9375,-1.0625 1.78572,0.35714 5.71875,-2.15625 5.71875,-2.15625 l 2.5,-4.28125 2.125,-0.71875 c 0,-10e-6 2.50892,1.08482 3.9375,2.15625 1.42857,1.07142 3.9375,1.4375 3.9375,1.4375 l 2.84375,-0.375 2.84375,-2.84375 1.4375,-1.78125 2.875,-0.375 3.59375,0.34375 0.3125,0.0312 c -10e-6,10e-6 3.57143,-1.09375 5,-1.09375 1.42856,-10e-6 2.87053,-0.33482 4.65625,-1.40625 1.78571,-1.07142 4.28125,-2.5 4.28125,-2.5 l 16.4375,18.1875 8.21875,4.65625 4.625,0.71875 3.9375,1.4375 5,3.5625 6.78125,5.71875 c 0,-2e-5 4.27678,2.12946 7,2.21875 2.25755,0.074 3.5,0.0937 3.5,0.0937 l 9.1875,-0.21875 11.53125,-2.1875 0.3125,-2.15625 -3.84375,-2.9375 0.25,-5.03125 6.34375,-9.9375 19.5625,-22.8125 15.125,-16.28125 0.15625,-0.9375 1.53125,-9.71875 4.46875,-16 9.65625,-24.09375 1.96875,-3.59375 13.90625,4.65625 4.6875,0.5 5.15625,-1.34375 3.125,-4.125 c 10e-6,-1e-5 1.86607,-4.5 2,-4.8125 0.13393,-0.3125 1.46875,-6.96875 1.46875,-6.96875 l 0.59375,-9.21875 -1.21875,-4.46875 -3.0625,-5.15625 -4.75,-5.625 -4.46875,-3.28125 -4.625,-3 -2.6875,-1.84375 -1.875,4.78125 -2.3125,3.3125 -3.40625,3.84375 -2.75,2.6875 -2.0625,1.0625 -7.5625,-0.8125 -2.65625,-1.34375 c 10e-6,-1e-5 -2.50893,-1.33036 -2.6875,-1.375 -0.17857,-0.0446 -4.46875,-1.28125 -4.46875,-1.28125 10e-6,10e-6 -4.99553,0 -5.21875,0 -0.22321,10e-6 -4.90625,0.3125 -4.90625,0.3125 0,10e-6 -2.3616,1.28125 -3.03125,1.28125 -0.66963,0 -3.66518,0.0893 -3.84375,0 -0.17857,-0.0893 -2.3125,-1.46875 -2.3125,-1.46875 l -2.34375,-4.6875 -1.21875,-6.78125 -0.0625,-0.375 -3.25,-3.53125 -2.25,-2.125 c 10e-6,0 -1.21428,-2.50446 -1.125,-2.90625 0.0893,-0.40179 1.03125,-2.59375 1.03125,-2.59375 l 2.90625,-2.21875 c 10e-6,10e-6 2.75893,-1.87947 2.9375,-1.96875 0.17857,-0.0893 4.25,-3.8125 4.25,-3.8125 l 2.78125,-3.375 2.21875,-0.75 2.6875,0.0625 c 0,-1e-5 2.9375,1.08036 3.25,1.125 0.31251,0.0446 3.74108,0.28125 4.1875,0.28125 0.44642,10e-6 5.5,-0.1875 5.5,-0.1875 l 11.5625,-6.78125 8.03125,-1.03125 7.65625,-1.375 5.53125,-1.5625 0.75,-0.28125 0.8125,-0.34375 3.65625,-2.25 -3.875,-7.34375 0.34375,-3.375 4.65625,0.46875 4.09375,1.09375 -2.09375,-6.6875 -0.21875,-4.46875 2.71875,-5.3125 2.53125,-3.90625 v -2.4375 l -6.5,-2.96875 -3.84375,-3.9375 -0.5,-3.9375 -0.21875,-11.5625 -1.65625,-4.3125 -3.21875,-3.625 -1.875,-2.53125 -0.15625,-7.96875 -5.8125,-2.75 -4.875,-2.71875 -2.09375,-1.21875 -2.9375,-2.1875 3.78125,-10.125 -0.125,-4.5625 -12.09375,-3.21875 -6.75,0.8125 -5.96875,0.71875 -9.59375,2.96875 -7.4375,4.1875 -6.3125,3.53125 -6.4375,-0.125 -2.03125,-0.25 -0.875,-0.125 -14.03125,-13.78125 -19.9375,2.03125 -13.40625,-1.28125 -12.5,-5.9375 -4.40625,-4.21875 -5.8125,-5.625 -2.65625,-6.9375 -4.28125,-4.53125 -8.34375,-2.40625 8.21875,-9.71875 -0.5,-3.03125 -3.15625,-6.96875 -4.4375,-10.46875 -7.4375,-28.90625 -7.4375,-13.53125 -7.84375,-8.6875 15.53125,-3.28125 12.5,-6.1875 11.375,-5.6875 5.28125,-0.75 4.6875,1.625 c 10e-6,0 3.65498,4.80742 3.78125,5.3125 0.12627,0.50507 7.0625,16.28125 7.0625,16.28125 l 16.4375,5.8125 10.09375,0.5 9.09375,-2.90625 20.1875,-14.40625 1.90625,-9.34375 -1.53125,-3.15625 -4.40625,-4.40625 -3.90625,-3.90625 -6.0625,-2.53125 -0.625,-12.625 -2.65625,-5.4375 -2.28125,-1.875 -3.03125,-2.28125 -2.15625,-1.40625 v -11.09375 l -1,-5.6875 -2.53125,-5.9375 -4.15625,-5.8125 -6.9375,-3.53125 -4.0625,-0.75 -4.03125,-4.1875 -3.90625,-2.875 -3.90625,-1.03125 z"
       id="path4315"
       inkscape:connector-curvature="0" />
    <path
       style="fill:#151515;fill-opacity:1;fill-rule:evenodd;stroke:#848484;stroke-width:1;stroke-linecap:butt;stroke-linejoin:miter;stroke-miterlimit:4;stroke-dasharray:none;stroke-opacity:1"
       d="m 379.85713,634.82079 3.625,2.25 6.40625,0.34375 5.375,-3.5625 10,-7.84375 4.625,-0.375 5,-0.34375 4.65625,-1.09375 2.84375,-2.125 7.5,-3.21875 13.21875,-3.5625 3.21875,-3.9375 7.5,-2.15625 0.71875,-8.1875 -2.84375,-6.09375 c 0,0 -2.49999,-12.83927 -2.5,-14.625 0,-0.89285 0.52679,-2.6875 1.0625,-4.25 0.53571,-1.5625 1.0625,-2.90625 1.0625,-2.90625 l 11.4375,-3.21875 -1.0625,-3.21875 -2.875,-5 4.65625,-10.34375 0.71875,-6.4375 -4.3125,-6.40625 0.0625,-0.0937 -3.625,-2.78125 -12.84375,-3.9375 -9.28125,-2.84375 -5,-0.71875 -7.5,-0.34375 -3.59375,-2.5 -7.5,-7.875 -0.71875,5.71875 -1.0625,3.5625 -3.21875,3.21875 h -3.21875 l -1.78125,-2.125 -0.34375,-2.15625 -24.65625,0.375 -18.90625,4.28125 -40.8125,-18.46875 c -0.20862,1.03274 -0.46922,2.12689 -0.625,2.75 -0.42316,1.69264 0.0256,3.74135 -0.375,5.34375 -0.40075,1.603 -1.73549,2.37948 -2.125,3.9375 -0.43767,1.75067 0,4.25522 0,6.0625 0,1.02013 3.60817,2.53846 4.28125,2.875 1.46466,0.73234 3.96596,0.34375 5.71875,0.34375 2.00442,0 2.83341,-0.34375 4.625,-0.34375 l 10,2.84375 13.9375,3.9375 8.21875,6.0625 5.34375,11.0625 1.8125,14.3125 7.84375,-3.21875 7.15625,0.34375 6.0625,2.15625 -0.375,22.5 -8.5625,3.90625 -4.625,7.875 0.6875,10.34375 4.96875,19.90625 z"
       id="path2262"
       inkscape:connector-curvature="0" />
    <path
       style="fill:#ececec;fill-opacity:1;fill-rule:evenodd;stroke:#848484;stroke-width:1;stroke-linecap:butt;stroke-linejoin:miter;stroke-miterlimit:4;stroke-dasharray:none;stroke-opacity:1"
       d="m 378.73213,696.22704 0.0937,-0.21875 11.0625,-10 -0.34375,-8.9375 8.5625,-5.375 1.4375,-2.84375 -3.21875,-6.4375 0.375,-1.40625 5.6875,1.40625 7.875,-2.5 5.71875,-8.5625 2.125,0.71875 11.78125,-14.28125 7.5,-6.4375 6.8125,-1.78125 -0.625,-14.84375 -0.46875,0.5625 -13.21875,3.5625 -7.5,3.21875 -2.84375,2.125 -4.65625,1.09375 -5,0.34375 -4.625,0.375 -10,7.84375 -5.375,3.5625 -6.40625,-0.34375 -3.625,-2.25 0.0312,0.0937 -2.5,0.375 -4.625,6.0625 -3.9375,3.21875 -6.4375,-0.375 -5.34375,-0.34375 -6.0625,0.34375 -7.15625,0.71875 h -6.0625 l -5.71875,-3.90625 -5.34375,-2.5 -18.21875,-2.15625 23.90625,49.65625 3.21875,-3.59375 6.78125,5.71875 6.4375,0.375 7.15625,6.78125 3.21875,0.71875 4.28125,-0.71875 2.5,-2.875 1.40625,-0.71875 11.34375,4.53125 z"
       id="path2272"
       inkscape:connector-curvature="0" />
    <path
       style="fill:#ececec;fill-opacity:1;fill-rule:evenodd;stroke:#848484;stroke-width:1;stroke-linecap:butt;stroke-linejoin:miter;stroke-miterlimit:4;stroke-dasharray:none;stroke-opacity:1"
       d="m 439.20088,692.78954 1.0625,-15.375 5.34375,-12.84375 8.21875,-9.65625 8.5625,-4.625 -3.1875,-0.71875 -5,-3.9375 -5,-3.9375 -6.4375,-2.5 0.71875,-4.28125 -2.875,-3.90625 -0.125,-0.46875 -3.09375,0.8125 -7.5,6.4375 -11.78125,14.28125 -2.125,-0.71875 -5.71875,8.5625 -7.875,2.5 -5.6875,-1.40625 -0.375,1.40625 3.21875,6.4375 -1.4375,2.84375 -8.5625,5.375 0.34375,8.9375 -11.0625,10 -0.0937,0.21875 10.09375,4.0625 5.375,1.0625 c 10e-6,0 4.62053,0.0134 6.40625,-0.34375 1.78571,-0.35714 38.59375,-8.21875 38.59375,-8.21875 z"
       id="path2277"
       inkscape:connector-curvature="0" />
    <path
       style="fill:#ffffff;fill-opacity:1;fill-rule:evenodd;stroke:#848484;stroke-width:1;stroke-linecap:butt;stroke-linejoin:miter;stroke-miterlimit:4;stroke-dasharray:none;stroke-opacity:1"
       d="m 483.91963,701.82079 -8.65625,-5.125 h -18.9375 l -17.15625,-3.8125 -9.28125,44.1875 12.875,13.5625 1.4375,1.78125 v 2.875 c 1e-5,10e-6 21.41518,5.34375 22.84375,5.34375 1.42857,0 7.15179,-1.41965 8.9375,-1.0625 1.78572,0.35714 5.71875,-2.15625 5.71875,-2.15625 l 2.5,-4.28125 2.125,-0.71875 c 0,-10e-6 2.50892,1.08482 3.9375,2.15625 1.42857,1.07142 3.9375,1.4375 3.9375,1.4375 l 2.84375,-0.375 2.84375,-2.84375 1.4375,-1.78125 2.875,-0.375 3.59375,0.34375 -6.09375,-19.96875 -5.375,-1.8125 v -6.40625 l -7.5,-9.65625 0.375,-4.28125 z"
       id="path2282"
       inkscape:connector-curvature="0" />
    <path
       style="fill:#ececec;fill-opacity:1;fill-rule:evenodd;stroke:#848484;stroke-width:1;stroke-linecap:butt;stroke-linejoin:miter;stroke-miterlimit:4;stroke-dasharray:none;stroke-opacity:1"
       d="m 478.13838,670.41454 -0.375,-0.125 -15,-20 -0.59375,0.125 -8.34375,4.5 -8.21875,9.65625 -5.34375,12.84375 -1.0625,15.375 -0.0312,0.0937 17.15625,3.8125 h 18.9375 l 8.65625,5.125 -0.0937,-0.125 2.15625,-9.28125 -5.71875,-8.21875 -2.125,-13.78125 z"
       id="path2287"
       inkscape:connector-curvature="0" />
    <path
       style="fill:#696969;fill-opacity:1;fill-rule:evenodd;stroke:#848484;stroke-width:1;stroke-linecap:butt;stroke-linejoin:miter;stroke-miterlimit:4;stroke-dasharray:none;stroke-opacity:1"
       d="m 480.16963,631.13329 -4.90625,2 -13.5625,0.71875 -12.15625,-5 0.71875,-8.21875 -6.4375,-1.0625 h -0.0312 l 0.40625,10 -3.71875,0.96875 0.125,0.46875 2.875,3.90625 -0.71875,4.28125 6.4375,2.5 5,3.9375 5,3.9375 3.1875,0.71875 -0.21875,0.125 0.59375,-0.125 15,20 0.375,0.125 -0.0312,-0.125 9.65625,-3.59375 3.21875,-8.1875 6.40625,-2.5 2.5,-3.21875 -0.34375,-1.78125 -2.84375,-4.3125 -6.8125,-7.125 -9.71875,-8.4375 z"
       id="path2299"
       inkscape:connector-curvature="0" />
    <path
       style="fill:#151515;fill-opacity:1;fill-rule:evenodd;stroke:#848484;stroke-width:1;stroke-linecap:butt;stroke-linejoin:miter;stroke-miterlimit:4;stroke-dasharray:none;stroke-opacity:1"
       d="m 482.57588,604.94579 -12.6875,-6.4375 -12.84375,-3.59375 -5,0.71875 2.5,5.375 -0.71875,8.1875 -7.5,2.15625 -2.75,3.375 0.21875,4.84375 h 0.0312 l 6.4375,1.0625 -0.71875,8.21875 12.15625,5 13.5625,-0.71875 4.90625,-2 -3.46875,-3 v -8.5625 l 3.1875,-9.28125 2.6875,-5.34375 z"
       id="path2304"
       inkscape:connector-curvature="0" />
    <path
       style="fill:#151515;fill-opacity:1;fill-rule:evenodd;stroke:#848484;stroke-width:1;stroke-linecap:butt;stroke-linejoin:miter;stroke-miterlimit:4;stroke-dasharray:none;stroke-opacity:1"
       d="m 462.54463,569.22704 0.21875,0.6875 -11.4375,3.21875 c 0,0 -0.52679,1.34375 -1.0625,2.90625 -0.53571,1.5625 -1.0625,3.35715 -1.0625,4.25 1e-5,1.78573 2.5,14.625 2.5,14.625 l 0.34375,0.71875 5,-0.71875 12.84375,3.59375 12.6875,6.4375 1.625,-3.25 1.78125,-6.40625 -1.78125,-4.65625 -0.71875,-16.84375 z"
       id="path2292"
       inkscape:connector-curvature="0" />
    <path
       style="fill:#696969;fill-opacity:1;fill-rule:evenodd;stroke:#848484;stroke-width:1;stroke-linecap:butt;stroke-linejoin:miter;stroke-miterlimit:4;stroke-dasharray:none;stroke-opacity:1"
       d="m 462.54463,569.22704 20.9375,4.5625 v -0.28125 l 8.21875,-38.59375 -0.21875,-0.625 -0.15625,0.625 -2.84375,-3.21875 -4.65625,0.71875 -6.78125,-1.40625 -5.34375,2.5 -6.4375,1.0625 -4.28125,4.625 -1.03125,-0.78125 -0.0625,0.0937 4.3125,6.40625 -0.71875,6.4375 -4.65625,10.34375 2.875,5 0.84375,2.53125 z"
       id="path2267"
       inkscape:connector-curvature="0" />
    <path
       style="fill:#151515;fill-opacity:1;fill-rule:evenodd;stroke:#848484;stroke-width:1;stroke-linecap:butt;stroke-linejoin:miter;stroke-miterlimit:4;stroke-dasharray:none;stroke-opacity:1"
       d="m 499.76338,652.10204 0.125,-0.0312 17.15625,-26.78125 1.78125,-7.875 -6.4375,-2.84375 -30,-1.78125 -3.5625,1.78125 -0.46875,0.15625 -1.65625,4.84375 v 8.5625 l 13.1875,11.4375 6.8125,7.125 2.84375,4.3125 0.21875,1.09375 z"
       id="path2309"
       inkscape:connector-curvature="0" />
    <path
       style="fill:#151515;fill-opacity:1;fill-rule:evenodd;stroke:#848484;stroke-width:1;stroke-linecap:butt;stroke-linejoin:miter;stroke-miterlimit:4;stroke-dasharray:none;stroke-opacity:1"
       d="m 483.98213,585.41454 0.21875,5.21875 1.78125,4.65625 -1.78125,6.40625 -4.3125,8.59375 -1.53125,4.4375 0.46875,-0.15625 3.5625,-1.78125 30,1.78125 6.4375,2.84375 -0.3125,1.4375 h 0.3125 l 0.375,-7.15625 -1.8125,-11.0625 3.21875,-10 -1.34375,-10.96875 -20.78125,9.53125 z"
       id="path2319"
       inkscape:connector-curvature="0" />
    <path
       style="fill:#151515;fill-opacity:1;fill-rule:evenodd;stroke:#848484;stroke-width:1;stroke-linecap:butt;stroke-linejoin:miter;stroke-miterlimit:4;stroke-dasharray:none;stroke-opacity:1"
       d="m 483.98213,585.41454 14.5,3.78125 20.78125,-9.53125 -0.0625,-0.46875 -2.15625,-10.6875 v -15 l -5,-8.9375 -3.9375,-18.21875 1.78125,-7.78125 -14.625,2.0625 -3.78125,13.65625 0.21875,0.625 -8.21875,38.59375 z"
       id="path2314"
       inkscape:connector-curvature="0" />
    <path
       style="fill:#ececec;fill-opacity:1;fill-rule:evenodd;stroke:#848484;stroke-width:1;stroke-linecap:butt;stroke-linejoin:miter;stroke-miterlimit:4;stroke-dasharray:none;stroke-opacity:1"
       d="m 636.16963,720.10204 -14.125,-5.1875 -17.5,-12.5 -6.4375,-0.71875 -15.34375,-11.40625 0.71875,-8.21875 1.78125,-3.5625 -3.5625,-1.09375 -0.375,-4.625 -23.5625,-8.9375 -4.65625,12.5 -33.21875,7.15625 -4.28125,6.78125 -7.5,8.5625 -11.78125,3.5625 -12.21875,-0.34375 5.09375,6.78125 -0.375,4.28125 7.5,9.65625 v 6.40625 l 5.375,1.8125 6.09375,19.96875 0.3125,0.0312 c -10e-6,10e-6 3.57143,-1.09375 5,-1.09375 1.42856,-10e-6 2.87053,-0.33482 4.65625,-1.40625 1.78571,-1.07142 4.28125,-2.5 4.28125,-2.5 l 16.4375,18.1875 8.21875,4.65625 4.625,0.71875 3.9375,1.4375 5,3.5625 6.78125,5.71875 c 0,-2e-5 4.27678,2.12946 7,2.21875 2.25755,0.074 3.5,0.0937 3.5,0.0937 l 9.1875,-0.21875 11.53125,-2.1875 0.3125,-2.15625 -3.84375,-2.9375 0.25,-5.03125 6.34375,-9.9375 19.5625,-22.8125 15.125,-16.28125 0.15625,-0.9375 z"
       id="path2324"
       inkscape:connector-curvature="0" />
    <path
       style="fill:#ffffff;fill-opacity:1;fill-rule:evenodd;stroke:#848484;stroke-width:1;stroke-linecap:butt;stroke-linejoin:miter;stroke-miterlimit:4;stroke-dasharray:none;stroke-opacity:1"
       d="m 558.04463,663.94579 -0.28125,-0.4375 -14.65625,-5.375 -10.34375,-5.34375 -6.0625,-9.65625 -4.3125,-4.28125 -3.90625,-1.78125 -8.1875,-1.21875 -10.40625,16.21875 -0.125,0.0312 0.125,0.6875 -2.5,3.21875 -6.40625,2.5 -3.21875,8.1875 -9.65625,3.59375 2.15625,13.90625 5.71875,8.21875 -2.15625,9.28125 0.28125,0.375 12.21875,0.34375 11.78125,-3.5625 7.5,-8.5625 4.28125,-6.78125 33.21875,-7.15625 4.65625,-12.5 0.28125,0.0937 z"
       id="path2329"
       inkscape:connector-curvature="0" />
    <path
       style="fill:#ececec;fill-opacity:1;fill-rule:evenodd;stroke:#848484;stroke-width:1;stroke-linecap:butt;stroke-linejoin:miter;stroke-miterlimit:4;stroke-dasharray:none;stroke-opacity:1"
       d="m 550.98213,661.00829 13.5625,-32.5 -6.0625,-2.5 h -19.65625 l -9.28125,-1.09375 -2.5,-1.40625 -0.71875,-3.21875 -7.4375,-2.71875 -0.0625,1.28125 h -0.3125 l -1.46875,6.4375 -6.75,10.5625 8.1875,1.21875 3.90625,1.78125 4.3125,4.28125 6.0625,9.65625 10.34375,5.34375 z"
       id="path2334"
       inkscape:connector-curvature="0" />
    <path
       style="fill:#696969;fill-opacity:1;fill-rule:evenodd;stroke:#848484;stroke-width:1;stroke-linecap:butt;stroke-linejoin:miter;stroke-miterlimit:4;stroke-dasharray:none;stroke-opacity:1"
       d="m 563.88838,628.25829 -17.5625,-35.84375 0.71875,-1.78125 1.78125,-1.4375 -0.71875,-2.125 -7.125,-6.4375 -13.21875,-22.84375 -8.21875,-7.875 -1.78125,-18.21875 1.4375,-5.34375 5,-3.9375 c 0,0 -11.13416,-3.11587 -13.875,-4.0625 l -0.0625,0.15625 -0.375,0.0625 -1.78125,7.78125 3.9375,18.21875 5,8.9375 v 15 l 2.15625,10.6875 1.40625,11.4375 -3.21875,10 1.8125,11.0625 -0.3125,5.875 7.4375,2.71875 0.71875,3.21875 2.5,1.40625 9.28125,1.09375 h 19.65625 z"
       id="path2339"
       inkscape:connector-curvature="0" />
    <path
       style="fill:#696969;fill-opacity:1;fill-rule:evenodd;stroke:#848484;stroke-width:1;stroke-linecap:butt;stroke-linejoin:miter;stroke-miterlimit:4;stroke-dasharray:none;stroke-opacity:1"
       d="m 595.82588,497.78954 -0.21875,2.5 1.4375,2.84375 2.15625,3.5625 v 2.15625 l -3.59375,4.28125 -12.84375,5.375 -3.5625,4.625 -1.8125,6.0625 -10.34375,5.71875 -2.5,3.21875 1.4375,3.9375 -0.71875,3.9375 -3.21875,-1.09375 1.4375,3.21875 8.5625,14.65625 11.0625,6.40625 4.28125,1.8125 0.375,5.6875 39.28125,3.59375 28.5625,3.90625 14.25,3.9375 0.8125,-0.34375 3.65625,-2.25 -3.875,-7.34375 0.34375,-3.375 4.65625,0.46875 4.09375,1.09375 -2.09375,-6.6875 -0.21875,-4.46875 2.71875,-5.3125 2.53125,-3.90625 v -2.4375 l -6.5,-2.96875 -3.84375,-3.9375 -0.5,-3.9375 -0.21875,-11.5625 -1.65625,-4.3125 -3.21875,-3.625 -1.875,-2.53125 -0.15625,-7.96875 -5.8125,-2.75 -4.875,-2.71875 -2.09375,-1.21875 -2.9375,-2.1875 3.78125,-10.125 -0.125,-4.5625 -12.09375,-3.21875 -6.75,0.8125 -5.96875,0.71875 -9.59375,2.96875 -7.4375,4.1875 -6.3125,3.53125 -6.4375,-0.125 z"
       id="path2344"
       inkscape:connector-curvature="0" />
    <path
       style="fill:#ececec;fill-opacity:1;fill-rule:evenodd;stroke:#848484;stroke-width:1;stroke-linecap:butt;stroke-linejoin:miter;stroke-miterlimit:4;stroke-dasharray:none;stroke-opacity:1"
       d="m 611.26338,621.53954 -12.0625,19.8125 -22.875,-11.4375 -0.34375,-6.0625 -11.625,4.59375 0.1875,0.0625 -13.5625,32.5 6.78125,2.5 0.28125,0.4375 23.28125,8.84375 0.375,4.625 3.5625,1.09375 -1.78125,3.5625 -0.71875,8.21875 15.34375,11.40625 6.4375,0.71875 17.5,12.5 14.125,5.1875 1.53125,-9.71875 4.46875,-16 9.65625,-24.09375 1.96875,-3.59375 13.90625,4.65625 4.6875,0.5 5.15625,-1.34375 3.125,-4.125 c 10e-6,-10e-6 1.86607,-4.5 2,-4.8125 0.13393,-0.3125 1.46875,-6.96875 1.46875,-6.96875 l 0.59375,-9.21875 -1.21875,-4.46875 -3.0625,-5.15625 -4.75,-5.625 -4.46875,-3.28125 -4.625,-3 -2.6875,-1.84375 -1.875,4.78125 -2.3125,3.3125 -3.40625,3.84375 -2.75,2.6875 -2.0625,1.0625 -7.5625,-0.8125 -2.65625,-1.34375 c 10e-6,-10e-6 -2.50893,-1.33036 -2.6875,-1.375 -0.17857,-0.0446 -4.46875,-1.28125 -4.46875,-1.28125 10e-6,10e-6 -4.99553,0 -5.21875,0 -0.22321,10e-6 -4.90625,0.3125 -4.90625,0.3125 0,10e-6 -2.3616,1.28125 -3.03125,1.28125 -0.66963,0 -3.66518,0.0893 -3.84375,0 -0.17857,-0.0893 -2.3125,-1.46875 -2.3125,-1.46875 l -2.34375,-4.6875 z"
       id="path2354"
       inkscape:connector-curvature="0" />
    <path
       style="fill:#ececec;fill-opacity:1;fill-rule:evenodd;stroke:#848484;stroke-width:1;stroke-linecap:butt;stroke-linejoin:miter;stroke-miterlimit:4;stroke-dasharray:none;stroke-opacity:1"
       d="m 537.29463,574.22704 3.6875,6.40625 7.125,6.4375 0.71875,2.125 -1.78125,1.4375 -0.71875,1.78125 17.5625,35.84375 0.46875,0.1875 11.625,-4.59375 0.34375,6.0625 22.875,11.4375 12.0625,-19.8125 -0.0625,-0.375 -3.25,-3.53125 -2.25,-2.125 c 10e-6,0 -1.21428,-2.50446 -1.125,-2.90625 0.0893,-0.40179 1.03125,-2.59375 1.03125,-2.59375 l 2.90625,-2.21875 c 10e-6,10e-6 2.75893,-1.87947 2.9375,-1.96875 0.17857,-0.0893 4.25,-3.8125 4.25,-3.8125 l 2.78125,-3.375 2.21875,-0.75 2.6875,0.0625 c 0,-10e-6 2.9375,1.08036 3.25,1.125 0.31251,0.0446 3.74108,0.28125 4.1875,0.28125 0.44642,10e-6 5.5,-0.1875 5.5,-0.1875 l 11.5625,-6.78125 8.03125,-1.03125 7.65625,-1.375 5.53125,-1.5625 0.75,-0.28125 -14.25,-3.9375 -28.5625,-3.90625 -39.28125,-3.59375 z"
       id="path2349"
       inkscape:connector-curvature="0" />
    <path
       style="fill:#696969;fill-opacity:1;fill-rule:evenodd;stroke:#848484;stroke-width:1;stroke-linecap:butt;stroke-linejoin:miter;stroke-miterlimit:4;stroke-dasharray:none;stroke-opacity:1"
       d="m 537.29463,574.22704 50.46875,2.46875 -0.375,-5.6875 -4.28125,-1.8125 -11.0625,-6.40625 -8.5625,-14.65625 -1.4375,-3.21875 3.21875,1.09375 0.71875,-3.9375 -1.4375,-3.9375 2.5,-3.21875 10.34375,-5.71875 1.8125,-6.0625 3.5625,-4.625 12.84375,-5.375 3.59375,-4.28125 v -2.15625 l -2.15625,-3.5625 -1.4375,-2.84375 0.21875,-2.5 -0.875,-0.125 -14.03125,-13.78125 -19.9375,2.03125 -13.40625,-1.28125 -12.5,-5.9375 -4.40625,-4.21875 0.65625,8.3125 -2.84375,8.5625 -3.59375,5.71875 -8.1875,5 -2.875,5 -3.5,11.28125 c 2.74084,0.94663 13.875,4.0625 13.875,4.0625 l -5,3.9375 -1.4375,5.34375 1.78125,18.21875 8.21875,7.875 z"
       id="path2239"
       inkscape:connector-curvature="0" />
    <path
       style="fill:#696969;fill-opacity:1;fill-rule:evenodd;stroke:#848484;stroke-width:1;stroke-linecap:butt;stroke-linejoin:miter;stroke-miterlimit:4;stroke-dasharray:none;stroke-opacity:1"
       d="m 315.88838,511.82079 40.8125,18.46875 18.90625,-4.28125 24.65625,-0.375 0.34375,2.15625 1.78125,2.125 h 3.21875 l 3.21875,-3.21875 1.0625,-3.5625 0.71875,-5.71875 7.5,7.875 3.59375,2.5 7.5,0.34375 5,0.71875 9.28125,2.84375 12.84375,3.9375 4.65625,3.5625 4.28125,-4.625 6.4375,-1.0625 5.34375,-2.5 6.78125,1.40625 4.65625,-0.71875 2.84375,3.21875 3.9375,-14.28125 15,-2.125 3.5625,-11.4375 2.875,-5 8.1875,-5 3.59375,-5.71875 2.84375,-8.5625 -0.65625,-8.3125 -5.8125,-5.625 -2.65625,-6.9375 -4.28125,-4.53125 -8.34375,-2.40625 8.21875,-9.71875 -0.5,-3.03125 -3.15625,-6.96875 -4.4375,-10.46875 -7.4375,-28.90625 -7.4375,-13.53125 -7.84375,-8.6875 15.53125,-3.28125 12.5,-6.1875 11.375,-5.6875 5.28125,-0.75 4.6875,1.625 c 10e-6,0 3.65498,4.80742 3.78125,5.3125 0.12627,0.50507 7.0625,16.28125 7.0625,16.28125 l 16.4375,5.8125 10.09375,0.5 9.09375,-2.90625 20.1875,-14.40625 1.90625,-9.34375 -1.53125,-3.15625 -4.40625,-4.40625 -3.90625,-3.90625 -6.0625,-2.53125 -0.625,-12.625 -2.65625,-5.4375 -2.28125,-1.875 -3.03125,-2.28125 -2.15625,-1.40625 v -11.09375 l -1,-5.6875 -2.53125,-5.9375 -4.15625,-5.8125 -6.9375,-3.53125 -4.0625,-0.75 -4.03125,-4.1875 -3.90625,-2.875 -3.90625,-1.03125 -4.8125,0.90625 -4.53125,4.40625 -3.3125,7.1875 -2.5,17.3125 -1.78125,3.40625 -1.90625,2.28125 -3.90625,1.75 -6.3125,3.40625 -6.8125,4.3125 -5.9375,5.28125 c -10e-6,0 -2.52744,3.92734 -2.90625,4.9375 -0.37881,1.01015 -2.15625,5.4375 -2.15625,5.4375 1e-5,0 -0.9962,4.64863 -1.375,5.40625 -0.37882,0.75761 -2.65625,5.5625 -2.65625,5.5625 l -5.1875,5.6875 -2.875,2.28125 -6.46875,5.15625 -19.8125,-0.25 -9.21875,-4.15625 -8.1875,-0.5 -6.46875,-7.1875 -12.25,-7.71875 -14.5,-7.0625 -15.78125,-6.5625 -4.8125,1.625 -7.9375,0.625 -12.25,-0.375 -1.15625,-0.875 2.65625,-7.6875 -5.3125,-3.9375 -4.40625,-3.53125 -4.53125,0.25 0.75,3.78125 5.8125,10 -5.4375,4.53125 -8.96875,1.90625 -16.15625,0.125 -9.21875,3.90625 -1.53125,-1.625 -7.6875,-0.15625 -15.03125,6.0625 -8.96875,-7.0625 -3.40625,-1.5 -1.78125,1.5625 c 0.38452,2.30709 -4.8069,0.57788 -6.8125,1.78125 -1.53114,0.91868 -2.45061,2.45061 -3.5625,3.5625 -1.36743,1.36743 -3.95432,2.89543 -5.34375,3.9375 -1.41352,1.06013 -0.60435,4.08259 -0.375,5 0.50535,2.0214 -0.41631,3.79026 -0.71875,5 -0.33852,1.35408 -2.34993,2.30597 -2.84375,4.28125 -0.36822,1.47289 -2.90701,3.28201 -3.5625,3.9375 -0.85799,0.85798 0.71875,4.62235 0.71875,5.6875 0,1.55195 0.29849,4.1627 0.6875,5.71875 0.33189,1.32756 3.19947,2.30286 3.59375,2.5 0.36142,0.18071 -1.00579,3.36341 -0.71875,3.9375 0.34985,0.6997 4.47664,0.88908 5.34375,1.0625 1.51393,0.30278 4.15217,0.94837 5.375,1.4375 0.14983,0.0599 1.0625,4.94189 1.0625,5.34375 0,2.35604 0.87841,4.20112 1.4375,6.4375 0.49111,1.96444 1.5872,3.17439 2.5,5 0.80485,1.6097 0.97055,4.31968 1.40625,6.0625 0.57663,2.30652 0.97003,4.0338 1.8125,5.71875 0.88008,1.76015 1.31637,2.79671 1.78125,4.65625 0.50125,2.005 1.22901,4.0241 2.5,5.71875 1.32748,1.76998 2.2997,4.37877 3.5625,6.0625 0.9719,1.29587 1.15395,4.46415 1.78125,5.71875 0.84387,1.68773 1.86988,4.05226 2.875,6.0625 0.89099,1.78199 1.02413,4.87066 1.40625,6.78125 0.31225,1.56125 0.002,3.61847 -0.34375,5 0.47188,2.35939 -2.875,3.55095 -2.875,5.71875 0,1.61102 4.28513,1.78125 5.375,1.78125 2.2757,0 3.44,2.095 5,2.875 1.99274,0.99637 2.96995,0.8137 4.28125,2.125 0.90765,0.90765 2.37693,1.65818 3.21875,2.5 1.57107,1.57106 8.4e-4,3.15289 -0.375,4.65625 -0.50863,2.03453 0.80666,4.45707 1.4375,5.71875 0.79123,1.58246 2.15999,3.26497 2.5,4.625 0.49869,1.99476 0.62796,3.63684 1.0625,5.375 0.49838,1.9935 0,4.69321 0,6.78125 0,1.44984 -1.52221,3.79441 -2.125,5 -0.8805,1.76099 -0.79093,4.05062 -1.4375,5.34375 -0.2474,0.4948 -0.29282,1.19002 -0.4375,1.90625 z"
       id="path2234"
       inkscape:connector-curvature="0" />
    <rect
       style="fill:#ffffff;fill-opacity:1;stroke:#060000;stroke-width:1.12292767;stroke-opacity:1"
       id="rect3832"
       width="213.6095"
       height="179.87708"
       x="123.17944"
       y="458.6178" />
    <rect
       style="fill:#151515;fill-opacity:1;stroke:#aeaeae;stroke-width:0.90858561;stroke-opacity:0.94901961"
       id="rect6680"
       width="64.694016"
       height="26.224117"
       x="135.11797"
       y="471.65988" />
    <text
       xml:space="preserve"
       style="font-style:normal;font-weight:normal;line-height:0%;font-family:sans-serif;letter-spacing:0px;word-spacing:0px;fill:#000000;fill-opacity:1;stroke:none"
       x="207.3624"
       y="488.43951"
       id="text6684"><tspan
         sodipodi:role="line"
         x="207.3624"
         y="488.43951"
         id="tspan6686"
         style="font-style:normal;font-variant:normal;font-weight:normal;font-stretch:normal;font-size:13.33333302px;line-height:1.25;font-family:Cantarell;-inkscape-font-specification:Cantarell">+4000 eur/m2</tspan></text>
    <rect
       style="fill:#696969;fill-opacity:1;stroke:#aeaeae;stroke-width:0.90858561;stroke-opacity:0.96078432"
       id="rect6680-4"
       width="64.694016"
       height="26.224117"
       x="135.11797"
       y="513.88397" />
    <text
       xml:space="preserve"
       style="font-style:normal;font-weight:normal;line-height:0%;font-family:sans-serif;letter-spacing:0px;word-spacing:0px;fill:#000000;fill-opacity:1;stroke:none"
       x="207.3624"
       y="530.66357"
       id="text6684-7"><tspan
         sodipodi:role="line"
         x="207.3624"
         y="530.66357"
         id="tspan6686-8"
         style="font-style:normal;font-variant:normal;font-weight:normal;font-stretch:normal;font-size:13.33333302px;line-height:1.25;font-family:Cantarell;-inkscape-font-specification:Cantarell">3000-4000 eur/m2</tspan></text>
    <path
       style="fill:#ececec;fill-opacity:1;stroke:#aeaeae;stroke-width:0.90858561;stroke-opacity:0.94901961"
       d="m 135.11797,558.10809 c 21.56467,0 43.12934,0 64.69401,0 0,8.74138 0,17.48275 0,26.22412 -21.56467,0 -43.12934,0 -64.69401,0 0,-8.74137 0,-17.48274 0,-26.22412 z"
       id="rect6680-5"
       inkscape:connector-curvature="0" />
    <text
       xml:space="preserve"
       style="font-style:normal;font-weight:normal;line-height:0%;font-family:sans-serif;letter-spacing:0px;word-spacing:0px;fill:#000000;fill-opacity:1;stroke:none"
       x="207.36241"
       y="574.88776"
       id="text6684-0"><tspan
         sodipodi:role="line"
         x="207.36241"
         y="574.88776"
         id="tspan6686-3"
         style="font-style:normal;font-variant:normal;font-weight:normal;font-stretch:normal;font-size:13.33333302px;line-height:1.25;font-family:Cantarell;-inkscape-font-specification:Cantarell">2000-3000 eur/m2</tspan></text>
    <rect
       style="fill:#ffffff;fill-opacity:1;stroke:#aeaeae;stroke-width:0.90858561;stroke-opacity:0.94901961"
       id="rect6680-4-6"
       width="64.694016"
       height="26.224117"
       x="135.11797"
       y="600.33221" />
    <text
       xml:space="preserve"
       style="font-style:normal;font-weight:normal;line-height:0%;font-family:sans-serif;letter-spacing:0px;word-spacing:0px;fill:#000000;fill-opacity:1;stroke:none"
       x="207.36241"
       y="617.11182"
       id="text6684-7-1"><tspan
         sodipodi:role="line"
         x="207.36241"
         y="617.11182"
         id="tspan6686-8-0"
         style="font-style:normal;font-variant:normal;font-weight:normal;font-stretch:normal;font-size:13.33333302px;line-height:1.25;font-family:Cantarell;-inkscape-font-specification:Cantarell">0-2000 eur/m2</tspan></text>
    <text
       xml:space="preserve"
       style="font-style:normal;font-weight:normal;line-height:0%;font-family:sans-serif;letter-spacing:0px;word-spacing:0px;fill:#000000;fill-opacity:1;stroke:none"
       x="247.26341"
       y="572.02966"
       id="text6743"><tspan
         sodipodi:role="line"
         id="tspan6741"
         x="247.26341"
         y="572.02966"
         style="font-size:40px;line-height:1.25"> </tspan></text>
  </g>
</svg>
